<svg width="28" height="28" viewBox="0 0 28 28" fill="none" xmlns="http://www.w3.org/2000/svg">
<path d="M16.835 21.9566C16.6133 21.9566 16.3916 21.8749 16.2166 21.6999C15.8783 21.3616 15.8783 20.8016 16.2166 20.4632L22.68 13.9999L16.2166 7.53656C15.8783 7.19823 15.8783 6.63823 16.2166 6.29989C16.555 5.96156 17.115 5.96156 17.4533 6.29989L24.535 13.3816C24.8733 13.7199 24.8733 14.2799 24.535 14.6182L17.4533 21.6999C17.2783 21.8749 17.0566 21.9566 16.835 21.9566Z" fill="#0F4082"/>
<path d="M23.719 14.875H4.08398C3.60565 14.875 3.20898 14.4783 3.20898 14C3.20898 13.5217 3.60565 13.125 4.08398 13.125H23.719C24.1973 13.125 24.594 13.5217 24.594 14C24.594 14.4783 24.1973 14.875 23.719 14.875Z" fill="#0F4082"/>
</svg>
