<svg width="64" height="64" viewBox="0 0 64 64" fill="none" xmlns="http://www.w3.org/2000/svg">
<rect width="64" height="64" rx="32" fill="#0F4082"/>
<path d="M32.0006 48.1251C31.1006 48.1251 30.2156 47.9151 29.4956 47.5101L22.4006 43.4151C19.4606 41.4351 19.2656 41.0751 19.2656 37.9701V30.5301C19.2656 27.4251 19.4606 27.0651 22.3406 25.1301L29.5106 20.9901C30.9356 20.1651 33.0806 20.1651 34.5056 20.9901L41.6006 25.0851C44.5406 27.0651 44.7356 27.4251 44.7356 30.5301V37.9701C44.7356 41.0751 44.5406 41.4351 41.6606 43.3701L34.4906 47.5101C33.7856 47.9301 32.8856 48.1251 32.0006 48.1251ZM32.0006 22.6251C31.4906 22.6251 30.9806 22.7301 30.6206 22.9401L23.5256 27.0351C21.5156 28.4001 21.5156 28.4001 21.5156 30.5301V37.9701C21.5156 40.1001 21.5156 40.1001 23.6006 41.5101L30.6356 45.5601C31.3556 45.9801 32.6606 45.9801 33.3806 45.5601L40.4756 41.4651C42.4856 40.1001 42.4856 40.1001 42.4856 37.9701V30.5301C42.4856 28.4001 42.4856 28.4001 40.4006 26.9901L33.3656 22.9401C33.0206 22.7301 32.5106 22.6251 32.0006 22.6251Z" fill="white"/>
<path d="M40.25 26.57C39.635 26.57 39.125 26.06 39.125 25.445V21.5C39.125 19.13 38.12 18.125 35.75 18.125H28.25C25.88 18.125 24.875 19.13 24.875 21.5V25.34C24.875 25.955 24.365 26.465 23.75 26.465C23.135 26.465 22.625 25.97 22.625 25.34V21.5C22.625 17.87 24.62 15.875 28.25 15.875H35.75C39.38 15.875 41.375 17.87 41.375 21.5V25.445C41.375 26.06 40.865 26.57 40.25 26.57Z" fill="white"/>
<path d="M34.4444 40.4449C34.1294 40.4449 33.7994 40.3849 33.4694 40.2499L31.9994 39.6799L30.5294 40.2649C29.7344 40.5799 28.9244 40.5049 28.3244 40.0699C27.7244 39.6349 27.4094 38.8849 27.4544 38.0299L27.5444 36.4549L26.5394 35.2399C25.9994 34.5649 25.8194 33.7849 26.0594 33.0649C26.2844 32.3599 26.8994 31.8199 27.7244 31.6099L29.2544 31.2199L30.1094 29.8849C31.0244 28.4449 32.9894 28.4449 33.9044 29.8849L34.7594 31.2199L36.2894 31.6099C37.1144 31.8199 37.7294 32.3599 37.9544 33.0649C38.1794 33.7699 37.9994 34.5649 37.4594 35.2249L36.4544 36.4399L36.5444 38.0149C36.5894 38.8699 36.2744 39.6049 35.6744 40.0549C35.3144 40.3099 34.8944 40.4449 34.4444 40.4449ZM28.2794 33.7999L29.2844 35.0149C29.6294 35.4199 29.8244 36.0649 29.7944 36.5899L29.7044 38.1649L31.1744 37.5799C31.6694 37.3849 32.3294 37.3849 32.8244 37.5799L34.2944 38.1649L34.2044 36.5899C34.1744 36.0649 34.3694 35.4349 34.7144 35.0149L35.7194 33.7999L34.1894 33.4099C33.6794 33.2749 33.1394 32.8849 32.8544 32.4499L32.0144 31.1299L31.1594 32.4499C30.8744 32.8999 30.3344 33.2899 29.8244 33.4249L28.2794 33.7999Z" fill="white"/>
</svg>
