<svg width="65" height="64" viewBox="0 0 65 64" fill="none" xmlns="http://www.w3.org/2000/svg">
<rect x="0.5" width="64" height="64" rx="32" fill="#0F4082"/>
<path d="M46 31.6252H19C17.56 31.6252 16.375 30.4402 16.375 29.0002V24.0202C16.375 23.0002 17.08 21.9652 18.025 21.5902L31.525 16.1902C32.095 15.9652 32.905 15.9652 33.475 16.1902L46.975 21.5902C47.92 21.9652 48.625 23.0152 48.625 24.0202V29.0002C48.625 30.4402 47.44 31.6252 46 31.6252ZM32.5 18.2602C32.44 18.2602 32.38 18.2602 32.35 18.2752L18.865 23.6752C18.775 23.7202 18.625 23.9152 18.625 24.0202V29.0002C18.625 29.2102 18.79 29.3752 19 29.3752H46C46.21 29.3752 46.375 29.2102 46.375 29.0002V24.0202C46.375 23.9152 46.24 23.7202 46.135 23.6752L32.635 18.2752C32.605 18.2602 32.56 18.2602 32.5 18.2602Z" fill="white"/>
<path d="M47.5 48.125H17.5C16.885 48.125 16.375 47.615 16.375 47V42.5C16.375 41.06 17.56 39.875 19 39.875H46C47.44 39.875 48.625 41.06 48.625 42.5V47C48.625 47.615 48.115 48.125 47.5 48.125ZM18.625 45.875H46.375V42.5C46.375 42.29 46.21 42.125 46 42.125H19C18.79 42.125 18.625 42.29 18.625 42.5V45.875Z" fill="white"/>
<path d="M20.5 42.125C19.885 42.125 19.375 41.615 19.375 41V30.5C19.375 29.885 19.885 29.375 20.5 29.375C21.115 29.375 21.625 29.885 21.625 30.5V41C21.625 41.615 21.115 42.125 20.5 42.125Z" fill="white"/>
<path d="M26.5 42.125C25.885 42.125 25.375 41.615 25.375 41V30.5C25.375 29.885 25.885 29.375 26.5 29.375C27.115 29.375 27.625 29.885 27.625 30.5V41C27.625 41.615 27.115 42.125 26.5 42.125Z" fill="white"/>
<path d="M32.5 42.125C31.885 42.125 31.375 41.615 31.375 41V30.5C31.375 29.885 31.885 29.375 32.5 29.375C33.115 29.375 33.625 29.885 33.625 30.5V41C33.625 41.615 33.115 42.125 32.5 42.125Z" fill="white"/>
<path d="M38.5 42.125C37.885 42.125 37.375 41.615 37.375 41V30.5C37.375 29.885 37.885 29.375 38.5 29.375C39.115 29.375 39.625 29.885 39.625 30.5V41C39.625 41.615 39.115 42.125 38.5 42.125Z" fill="white"/>
<path d="M44.5 42.125C43.885 42.125 43.375 41.615 43.375 41V30.5C43.375 29.885 43.885 29.375 44.5 29.375C45.115 29.375 45.625 29.885 45.625 30.5V41C45.625 41.615 45.115 42.125 44.5 42.125Z" fill="white"/>
<path d="M49 48.125H16C15.385 48.125 14.875 47.615 14.875 47C14.875 46.385 15.385 45.875 16 45.875H49C49.615 45.875 50.125 46.385 50.125 47C50.125 47.615 49.615 48.125 49 48.125Z" fill="white"/>
<path d="M32.5 27.875C30.64 27.875 29.125 26.36 29.125 24.5C29.125 22.64 30.64 21.125 32.5 21.125C34.36 21.125 35.875 22.64 35.875 24.5C35.875 26.36 34.36 27.875 32.5 27.875ZM32.5 23.375C31.885 23.375 31.375 23.885 31.375 24.5C31.375 25.115 31.885 25.625 32.5 25.625C33.115 25.625 33.625 25.115 33.625 24.5C33.625 23.885 33.115 23.375 32.5 23.375Z" fill="white"/>
</svg>
