<svg width="64" height="64" viewBox="0 0 64 64" fill="none" xmlns="http://www.w3.org/2000/svg">
<rect width="64" height="64" rx="32" fill="#D6DFEC"/>
<path d="M32 47.12C31.55 47.12 31.1 47.015 30.725 46.805C27.92 45.275 22.985 43.655 19.895 43.25L19.46 43.19C17.495 42.95 15.875 41.105 15.875 39.11V20.99C15.875 19.805 16.34 18.725 17.195 17.945C18.05 17.165 19.16 16.79 20.33 16.895C23.63 17.15 28.61 18.8 31.43 20.57L31.79 20.78C31.895 20.84 32.12 20.84 32.21 20.795L32.45 20.645C35.27 18.875 40.25 17.195 43.565 16.91C43.595 16.91 43.715 16.91 43.745 16.91C44.84 16.805 45.965 17.195 46.805 17.975C47.66 18.755 48.125 19.835 48.125 21.02V39.125C48.125 41.135 46.505 42.965 44.525 43.205L44.03 43.265C40.94 43.67 35.99 45.305 33.245 46.82C32.885 47.03 32.45 47.12 32 47.12ZM19.97 19.13C19.49 19.13 19.055 19.295 18.71 19.61C18.335 19.955 18.125 20.45 18.125 20.99V39.11C18.125 39.995 18.89 40.85 19.745 40.97L20.195 41.03C23.57 41.48 28.745 43.175 31.745 44.81C31.88 44.87 32.075 44.885 32.15 44.855C35.15 43.19 40.355 41.48 43.745 41.03L44.255 40.97C45.11 40.865 45.875 39.995 45.875 39.11V21.005C45.875 20.45 45.665 19.97 45.29 19.61C44.9 19.265 44.405 19.1 43.85 19.13C43.82 19.13 43.7 19.13 43.67 19.13C40.805 19.385 36.185 20.93 33.665 22.505L33.425 22.67C32.6 23.18 31.43 23.18 30.635 22.685L30.275 22.475C27.71 20.9 23.09 19.37 20.15 19.13C20.09 19.13 20.03 19.13 19.97 19.13Z" fill="#0F4082"/>
<path d="M32 45.86C31.385 45.86 30.875 45.35 30.875 44.735V22.235C30.875 21.62 31.385 21.11 32 21.11C32.615 21.11 33.125 21.62 33.125 22.235V44.735C33.125 45.365 32.615 45.86 32 45.86Z" fill="#0F4082"/>
<path d="M25.625 27.86H22.25C21.635 27.86 21.125 27.35 21.125 26.735C21.125 26.12 21.635 25.61 22.25 25.61H25.625C26.24 25.61 26.75 26.12 26.75 26.735C26.75 27.35 26.24 27.86 25.625 27.86Z" fill="#0F4082"/>
<path d="M26.75 32.36H22.25C21.635 32.36 21.125 31.85 21.125 31.235C21.125 30.62 21.635 30.11 22.25 30.11H26.75C27.365 30.11 27.875 30.62 27.875 31.235C27.875 31.85 27.365 32.36 26.75 32.36Z" fill="#0F4082"/>
</svg>
