<svg width="56" height="56" viewBox="0 0 56 56" fill="none" xmlns="http://www.w3.org/2000/svg">
<rect width="56" height="56" rx="12" fill="#AD8E63"/>
<path d="M36 29.3334V26.6667H41.3333V29.3334H36ZM37.6 38.6667L33.3333 35.4667L34.9333 33.3334L39.2 36.5334L37.6 38.6667ZM34.9333 22.6667L33.3333 20.5334L37.6 17.3334L39.2 19.4667L34.9333 22.6667ZM18.6666 37.3334V32H17.3333C16.6 32 15.9724 31.7392 15.4506 31.2174C14.9288 30.6956 14.6675 30.0676 14.6666 29.3334V26.6667C14.6666 25.9334 14.928 25.3058 15.4506 24.784C15.9733 24.2623 16.6008 24.0009 17.3333 24H22.6666L29.3333 20V36L22.6666 32H21.3333V37.3334H18.6666ZM30.6666 32.4667V23.5334C31.2666 24.0667 31.7502 24.7169 32.1173 25.484C32.4844 26.2512 32.6675 27.0898 32.6666 28C32.6657 28.9103 32.4822 29.7494 32.116 30.5174C31.7497 31.2854 31.2666 31.9352 30.6666 32.4667Z" fill="white"/>
</svg>
