<svg width="188" height="64" viewBox="0 0 188 64" fill="none" xmlns="http://www.w3.org/2000/svg">
<rect width="64" height="64" rx="16" fill="#0F4082"/>
<path d="M16 32C16 23.1634 23.1634 16 32 16C40.8366 16 48 23.1634 48 32C48 40.8366 40.8366 48 32 48C23.1634 48 16 40.8366 16 32Z" fill="#D9D9D9"/>
<path d="M92.72 46.48C90.56 46.48 88.5467 46.1333 86.68 45.44C84.84 44.72 83.24 43.7067 81.88 42.4C80.52 41.0933 79.4533 39.56 78.68 37.8C77.9333 36.04 77.56 34.1067 77.56 32C77.56 29.8933 77.9333 27.96 78.68 26.2C79.4533 24.44 80.52 22.9067 81.88 21.6C83.2667 20.2933 84.88 19.2933 86.72 18.6C88.56 17.88 90.5733 17.52 92.76 17.52C95.1867 17.52 97.3733 17.9467 99.32 18.8C101.293 19.6267 102.947 20.8533 104.28 22.48L100.12 26.32C99.16 25.2267 98.0933 24.4133 96.92 23.88C95.7467 23.32 94.4667 23.04 93.08 23.04C91.7733 23.04 90.5733 23.2533 89.48 23.68C88.3867 24.1067 87.44 24.72 86.64 25.52C85.84 26.32 85.2133 27.2667 84.76 28.36C84.3333 29.4533 84.12 30.6667 84.12 32C84.12 33.3333 84.3333 34.5467 84.76 35.64C85.2133 36.7333 85.84 37.68 86.64 38.48C87.44 39.28 88.3867 39.8933 89.48 40.32C90.5733 40.7467 91.7733 40.96 93.08 40.96C94.4667 40.96 95.7467 40.6933 96.92 40.16C98.0933 39.6 99.16 38.76 100.12 37.64L104.28 41.48C102.947 43.1067 101.293 44.3467 99.32 45.2C97.3733 46.0533 95.1733 46.48 92.72 46.48ZM121.47 46.48C119.31 46.48 117.297 46.1333 115.43 45.44C113.59 44.72 111.99 43.7067 110.63 42.4C109.27 41.0933 108.203 39.56 107.43 37.8C106.683 36.04 106.31 34.1067 106.31 32C106.31 29.8933 106.683 27.96 107.43 26.2C108.203 24.44 109.27 22.9067 110.63 21.6C112.017 20.2933 113.63 19.2933 115.47 18.6C117.31 17.88 119.323 17.52 121.51 17.52C123.937 17.52 126.123 17.9467 128.07 18.8C130.043 19.6267 131.697 20.8533 133.03 22.48L128.87 26.32C127.91 25.2267 126.843 24.4133 125.67 23.88C124.497 23.32 123.217 23.04 121.83 23.04C120.523 23.04 119.323 23.2533 118.23 23.68C117.137 24.1067 116.19 24.72 115.39 25.52C114.59 26.32 113.963 27.2667 113.51 28.36C113.083 29.4533 112.87 30.6667 112.87 32C112.87 33.3333 113.083 34.5467 113.51 35.64C113.963 36.7333 114.59 37.68 115.39 38.48C116.19 39.28 117.137 39.8933 118.23 40.32C119.323 40.7467 120.523 40.96 121.83 40.96C123.217 40.96 124.497 40.6933 125.67 40.16C126.843 39.6 127.91 38.76 128.87 37.64L133.03 41.48C131.697 43.1067 130.043 44.3467 128.07 45.2C126.123 46.0533 123.923 46.48 121.47 46.48ZM137.406 46V18H143.886V40.72H157.926V46H137.406ZM174.478 46.48C172.318 46.48 170.304 46.1333 168.438 45.44C166.598 44.72 164.998 43.7067 163.638 42.4C162.278 41.0933 161.211 39.56 160.438 37.8C159.691 36.04 159.318 34.1067 159.318 32C159.318 29.8933 159.691 27.96 160.438 26.2C161.211 24.44 162.278 22.9067 163.638 21.6C165.024 20.2933 166.638 19.2933 168.478 18.6C170.318 17.88 172.331 17.52 174.518 17.52C176.944 17.52 179.131 17.9467 181.078 18.8C183.051 19.6267 184.704 20.8533 186.038 22.48L181.878 26.32C180.918 25.2267 179.851 24.4133 178.678 23.88C177.504 23.32 176.224 23.04 174.838 23.04C173.531 23.04 172.331 23.2533 171.238 23.68C170.144 24.1067 169.198 24.72 168.398 25.52C167.598 26.32 166.971 27.2667 166.518 28.36C166.091 29.4533 165.878 30.6667 165.878 32C165.878 33.3333 166.091 34.5467 166.518 35.64C166.971 36.7333 167.598 37.68 168.398 38.48C169.198 39.28 170.144 39.8933 171.238 40.32C172.331 40.7467 173.531 40.96 174.838 40.96C176.224 40.96 177.504 40.6933 178.678 40.16C179.851 39.6 180.918 38.76 181.878 37.64L186.038 41.48C184.704 43.1067 183.051 44.3467 181.078 45.2C179.131 46.0533 176.931 46.48 174.478 46.48Z" fill="#0F4082"/>
</svg>
