<svg width="64" height="64" viewBox="0 0 64 64" fill="none" xmlns="http://www.w3.org/2000/svg">
<rect width="64" height="64" rx="32" fill="#D6DFEC"/>
<path d="M35.6 45.125H28.4C21.815 45.125 18.875 42.185 18.875 35.6V28.4C18.875 21.815 21.815 18.875 28.4 18.875H35.6C42.185 18.875 45.125 21.815 45.125 28.4V35.6C45.125 42.185 42.185 45.125 35.6 45.125ZM28.4 21.125C23.03 21.125 21.125 23.03 21.125 28.4V35.6C21.125 40.97 23.03 42.875 28.4 42.875H35.6C40.97 42.875 42.875 40.97 42.875 35.6V28.4C42.875 23.03 40.97 21.125 35.6 21.125H28.4Z" fill="#0F4082"/>
<path d="M34.25 40.625H29.75C25.4 40.625 23.375 38.6 23.375 34.25V29.75C23.375 25.4 25.4 23.375 29.75 23.375H34.25C38.6 23.375 40.625 25.4 40.625 29.75V34.25C40.625 38.6 38.6 40.625 34.25 40.625ZM29.75 25.625C26.63 25.625 25.625 26.63 25.625 29.75V34.25C25.625 37.37 26.63 38.375 29.75 38.375H34.25C37.37 38.375 38.375 37.37 38.375 34.25V29.75C38.375 26.63 37.37 25.625 34.25 25.625H29.75Z" fill="#0F4082"/>
<path d="M26.0151 21.125C25.3851 21.125 24.8901 20.615 24.8901 20V17C24.8901 16.385 25.4001 15.875 26.0151 15.875C26.6301 15.875 27.1401 16.385 27.1401 17V20C27.1401 20.615 26.6301 21.125 26.0151 21.125Z" fill="#0F4082"/>
<path d="M32 21.125C31.385 21.125 30.875 20.615 30.875 20V17C30.875 16.385 31.385 15.875 32 15.875C32.615 15.875 33.125 16.385 33.125 17V20C33.125 20.615 32.615 21.125 32 21.125Z" fill="#0F4082"/>
<path d="M38 21.125C37.385 21.125 36.875 20.615 36.875 20V17C36.875 16.385 37.385 15.875 38 15.875C38.615 15.875 39.125 16.385 39.125 17V20C39.125 20.615 38.615 21.125 38 21.125Z" fill="#0F4082"/>
<path d="M47 27.125H44C43.385 27.125 42.875 26.615 42.875 26C42.875 25.385 43.385 24.875 44 24.875H47C47.615 24.875 48.125 25.385 48.125 26C48.125 26.615 47.63 27.125 47 27.125Z" fill="#0F4082"/>
<path d="M47 33.125H44C43.385 33.125 42.875 32.615 42.875 32C42.875 31.385 43.385 30.875 44 30.875H47C47.615 30.875 48.125 31.385 48.125 32C48.125 32.615 47.63 33.125 47 33.125Z" fill="#0F4082"/>
<path d="M47 39.125H44C43.385 39.125 42.875 38.615 42.875 38C42.875 37.385 43.385 36.875 44 36.875H47C47.615 36.875 48.125 37.385 48.125 38C48.125 38.615 47.63 39.125 47 39.125Z" fill="#0F4082"/>
<path d="M38 48.125C37.385 48.125 36.875 47.615 36.875 47V44C36.875 43.385 37.385 42.875 38 42.875C38.615 42.875 39.125 43.385 39.125 44V47C39.125 47.615 38.615 48.125 38 48.125Z" fill="#0F4082"/>
<path d="M32.0146 48.125C31.3996 48.125 30.8896 47.615 30.8896 47V44C30.8896 43.385 31.3996 42.875 32.0146 42.875C32.6296 42.875 33.1396 43.385 33.1396 44V47C33.1396 47.615 32.6296 48.125 32.0146 48.125Z" fill="#0F4082"/>
<path d="M26.0151 48.125C25.4001 48.125 24.8901 47.615 24.8901 47V44C24.8901 43.385 25.4001 42.875 26.0151 42.875C26.6301 42.875 27.1401 43.385 27.1401 44V47C27.1401 47.615 26.6301 48.125 26.0151 48.125Z" fill="#0F4082"/>
<path d="M20 27.125H17C16.385 27.125 15.875 26.63 15.875 26C15.875 25.37 16.385 24.875 17 24.875H20C20.615 24.875 21.125 25.385 21.125 26C21.125 26.615 20.63 27.125 20 27.125Z" fill="#0F4082"/>
<path d="M20 33.125H17C16.385 33.125 15.875 32.615 15.875 32C15.875 31.385 16.385 30.875 17 30.875H20C20.615 30.875 21.125 31.385 21.125 32C21.125 32.615 20.63 33.125 20 33.125Z" fill="#0F4082"/>
<path d="M20 39.125H17C16.385 39.125 15.875 38.615 15.875 38C15.875 37.385 16.385 36.875 17 36.875H20C20.615 36.875 21.125 37.385 21.125 38C21.125 38.615 20.63 39.125 20 39.125Z" fill="#0F4082"/>
</svg>
