<svg width="56" height="56" viewBox="0 0 56 56" fill="none" xmlns="http://www.w3.org/2000/svg">
<rect width="56" height="56" rx="12" fill="#AD8E63"/>
<path d="M21.3333 36V21.4027C21.3332 21.0924 21.4362 20.791 21.626 20.5456C21.8158 20.3002 22.0818 20.1248 22.3821 20.047C22.6824 19.9692 23.0001 19.9933 23.2852 20.1156C23.5703 20.2379 23.8067 20.4514 23.9573 20.7227L32.0426 35.2773C32.1932 35.5486 32.4296 35.7621 32.7147 35.8844C32.9999 36.0067 33.3175 36.0308 33.6178 35.953C33.9181 35.8752 34.1841 35.6998 34.3739 35.4544C34.5638 35.209 34.6667 34.9076 34.6666 34.5973V20M18.6666 25.3333H37.3333M18.6666 30.6667H37.3333" stroke="white" stroke-width="2" stroke-linecap="round" stroke-linejoin="round"/>
</svg>
