<svg width="64" height="64" viewBox="0 0 64 64" fill="none" xmlns="http://www.w3.org/2000/svg">
<rect width="64" height="64" rx="16" fill="#AD8E63"/>
<path d="M47 32C47 40.2845 40.2845 47 32 47C23.7155 47 17 40.2845 17 32C17 23.7155 23.7155 17 32 17C40.2845 17 47 23.7155 47 32Z" stroke="white" stroke-width="2"/>
<path d="M41 32C41 34.3869 40.0518 36.6761 38.364 38.364C36.6761 40.0518 34.3869 41 32 41C29.6131 41 27.3239 40.0518 25.636 38.364C23.9482 36.6761 23 34.3869 23 32C23 29.6131 23.9482 27.3239 25.636 25.636C27.3239 23.9482 29.6131 23 32 23C34.3869 23 36.6761 23.9482 38.364 25.636C40.0518 27.3239 41 29.6131 41 32Z" stroke="white" stroke-width="2"/>
<path d="M33.5 32C33.5 32.3978 33.342 32.7794 33.0607 33.0607C32.7794 33.342 32.3978 33.5 32 33.5C31.6022 33.5 31.2206 33.342 30.9393 33.0607C30.658 32.7794 30.5 32.3978 30.5 32C30.5 31.6022 30.658 31.2206 30.9393 30.9393C31.2206 30.658 31.6022 30.5 32 30.5C32.3978 30.5 32.7794 30.658 33.0607 30.9393C33.342 31.2206 33.5 31.6022 33.5 32Z" stroke="white" stroke-width="2"/>
</svg>
