<svg width="48" height="48" viewBox="0 0 48 48" fill="none" xmlns="http://www.w3.org/2000/svg">
<path d="M8 8C8 6.93913 8.42143 5.92172 9.17157 5.17157C9.92172 4.42143 10.9391 4 12 4H28C28.5304 4.00011 29.039 4.2109 29.414 4.586L39.414 14.586C39.7891 14.961 39.9999 15.4696 40 16V40C40 41.0609 39.5786 42.0783 38.8284 42.8284C38.0783 43.5786 37.0609 44 36 44H12C10.9391 44 9.92172 43.5786 9.17157 42.8284C8.42143 42.0783 8 41.0609 8 40V8ZM35.172 16L28 8.828V16H35.172ZM24 8H12V40H36V20H26C25.4696 20 24.9609 19.7893 24.5858 19.4142C24.2107 19.0391 24 18.5304 24 18V8ZM16 26C16 25.4696 16.2107 24.9609 16.5858 24.5858C16.9609 24.2107 17.4696 24 18 24H30C30.5304 24 31.0391 24.2107 31.4142 24.5858C31.7893 24.9609 32 25.4696 32 26C32 26.5304 31.7893 27.0391 31.4142 27.4142C31.0391 27.7893 30.5304 28 30 28H18C17.4696 28 16.9609 27.7893 16.5858 27.4142C16.2107 27.0391 16 26.5304 16 26ZM16 34C16 33.4696 16.2107 32.9609 16.5858 32.5858C16.9609 32.2107 17.4696 32 18 32H30C30.5304 32 31.0391 32.2107 31.4142 32.5858C31.7893 32.9609 32 33.4696 32 34C32 34.5304 31.7893 35.0391 31.4142 35.4142C31.0391 35.7893 30.5304 36 30 36H18C17.4696 36 16.9609 35.7893 16.5858 35.4142C16.2107 35.0391 16 34.5304 16 34Z" fill="#0F4082"/>
</svg>
