<svg width="56" height="56" viewBox="0 0 56 56" fill="none" xmlns="http://www.w3.org/2000/svg">
<rect width="56" height="56" rx="12" fill="#AD8E63"/>
<path d="M24 41.3333H32C38.6666 41.3333 41.3333 38.6666 41.3333 32V24C41.3333 17.3333 38.6666 14.6666 32 14.6666H24C17.3333 14.6666 14.6666 17.3333 14.6666 24V32C14.6666 38.6666 17.3333 41.3333 24 41.3333Z" stroke="white" stroke-width="1.5" stroke-linecap="round" stroke-linejoin="round"/>
<path d="M32.6666 25C33.7712 25 34.6666 24.1046 34.6666 23C34.6666 21.8954 33.7712 21 32.6666 21C31.5621 21 30.6666 21.8954 30.6666 23C30.6666 24.1046 31.5621 25 32.6666 25Z" stroke="white" stroke-width="1.5" stroke-miterlimit="10" stroke-linecap="round" stroke-linejoin="round"/>
<path d="M23.3334 25C24.4379 25 25.3334 24.1046 25.3334 23C25.3334 21.8954 24.4379 21 23.3334 21C22.2288 21 21.3334 21.8954 21.3334 23C21.3334 24.1046 22.2288 25 23.3334 25Z" stroke="white" stroke-width="1.5" stroke-miterlimit="10" stroke-linecap="round" stroke-linejoin="round"/>
<path d="M23.2 29.7334H32.8C33.4667 29.7334 34 30.2667 34 30.9334C34 34.2534 31.32 36.9334 28 36.9334C24.68 36.9334 22 34.2534 22 30.9334C22 30.2667 22.5333 29.7334 23.2 29.7334Z" stroke="white" stroke-width="1.5" stroke-miterlimit="10" stroke-linecap="round" stroke-linejoin="round"/>
</svg>
