<svg width="64" height="64" viewBox="0 0 64 64" fill="none" xmlns="http://www.w3.org/2000/svg">
<rect width="64" height="64" rx="32" fill="#0F4082"/>
<path d="M45.6423 31.4524C45.102 31.2209 45.0779 30.7453 45.1325 30.4236L46.4216 25.9578L42.079 26.8465C41.9303 26.8665 41.5146 26.8352 41.2998 25.9954L40.9171 24.4759L37.9055 27.8778C37.9055 27.8778 35.9555 29.9592 36.5669 26.7814L37.875 19.9914L35.4559 21.1729C35.3186 21.2255 34.8419 21.2931 34.21 20.1153L32.0006 16L29.7925 20.1153C29.1607 21.2918 28.684 21.2255 28.5467 21.1729L26.13 19.9914L27.4356 26.7814C28.0471 29.9592 26.0983 27.8778 26.0983 27.8778L23.0867 24.4759L22.7041 25.9954C22.4892 26.8352 22.0761 26.8653 21.9235 26.8465L17.581 25.9578L18.8687 30.4236C18.9247 30.7453 18.8992 31.2221 18.359 31.4524L17 32.0369C17 32.0369 21.982 35.9532 23.6143 37.2874C23.9321 37.5465 24.7012 38.305 24.4368 39.116L23.8545 40.8933L30.6722 39.8745C31.0218 39.8457 31.7693 39.9046 31.7222 40.9922L31.4044 48H32.5968L32.279 40.9922C32.232 39.9058 32.982 39.8457 33.3291 39.8745L40.1467 40.8933L39.5645 39.116C39.3001 38.305 40.0679 37.5465 40.387 37.2874C42.018 35.9532 47 32.0369 47 32.0369L45.6423 31.4524Z" fill="white"/>
</svg>
