<svg width="48" height="48" viewBox="0 0 48 48" fill="none" xmlns="http://www.w3.org/2000/svg">
<path d="M24.0196 33.9999C22.3196 33.9999 20.5996 33.5599 19.2596 32.6999L7.21965 24.8399C4.97965 23.3799 3.63965 20.9199 3.63965 18.2399C3.63965 15.5599 4.97965 13.0999 7.21965 11.6399L19.2796 3.79995C21.9596 2.05995 26.1396 2.05995 28.7996 3.81995L40.7796 11.6799C42.9996 13.1399 44.3396 15.5999 44.3396 18.2599C44.3396 20.9199 42.9996 23.3799 40.7796 24.8399L28.7996 32.6999C27.4596 33.5799 25.7396 33.9999 24.0196 33.9999ZM24.0196 5.49995C22.8797 5.49995 21.7396 5.75995 20.9196 6.31995L8.87965 14.1599C7.47965 15.0799 6.65965 16.5599 6.65965 18.2399C6.65965 19.9199 7.45965 21.3999 8.87965 22.3199L20.9196 30.1799C22.5796 31.2599 25.4996 31.2599 27.1596 30.1799L39.1396 22.3199C40.5396 21.3999 41.3396 19.9199 41.3396 18.2399C41.3396 16.5599 40.5396 15.0799 39.1396 14.1599L27.1596 6.29995C26.3196 5.77995 25.1796 5.49995 24.0196 5.49995Z" fill="#292D32"/>
<path d="M24.0004 45.5C23.1204 45.5 22.2204 45.38 21.5004 45.14L15.1204 43.02C12.1004 42.02 9.72036 38.72 9.74036 35.54L9.76036 26.16C9.76036 25.34 10.4404 24.66 11.2604 24.66C12.0804 24.66 12.7604 25.34 12.7604 26.16L12.7404 35.54C12.7404 37.42 14.3004 39.58 16.0804 40.18L22.4604 42.3C23.2604 42.56 24.7404 42.56 25.5404 42.3L31.9204 40.18C33.7004 39.58 35.2604 37.42 35.2604 35.56V26.28C35.2604 25.46 35.9404 24.78 36.7604 24.78C37.5804 24.78 38.2604 25.46 38.2604 26.28V35.56C38.2604 38.74 35.9004 42.02 32.8804 43.04L26.5004 45.16C25.7804 45.38 24.8804 45.5 24.0004 45.5Z" fill="#292D32"/>
<path d="M42.7998 31.5C41.9798 31.5 41.2998 30.82 41.2998 30V18C41.2998 17.18 41.9798 16.5 42.7998 16.5C43.6198 16.5 44.2998 17.18 44.2998 18V30C44.2998 30.82 43.6198 31.5 42.7998 31.5Z" fill="#292D32"/>
</svg>
