<svg width="64" height="64" viewBox="0 0 64 64" fill="none" xmlns="http://www.w3.org/2000/svg">
<rect width="64" height="64" rx="32" fill="#D6DFEC"/>
<path d="M32 46.4749C31.535 46.4749 31.085 46.4149 30.71 46.2799C24.98 44.3149 15.875 37.3399 15.875 27.0349C15.875 21.7849 20.12 17.5249 25.34 17.5249C27.875 17.5249 30.245 18.5149 32 20.2849C33.755 18.5149 36.125 17.5249 38.66 17.5249C43.88 17.5249 48.125 21.7999 48.125 27.0349C48.125 37.3549 39.02 44.3149 33.29 46.2799C32.915 46.4149 32.465 46.4749 32 46.4749ZM25.34 19.7749C21.365 19.7749 18.125 23.0299 18.125 27.0349C18.125 37.2799 27.98 42.9799 31.445 44.1649C31.715 44.2549 32.3 44.2549 32.57 44.1649C36.02 42.9799 45.89 37.2949 45.89 27.0349C45.89 23.0299 42.65 19.7749 38.675 19.7749C36.395 19.7749 34.28 20.8399 32.915 22.6849C32.495 23.2549 31.535 23.2549 31.115 22.6849C29.72 20.8249 27.62 19.7749 25.34 19.7749Z" fill="#0F4082"/>
</svg>
