<svg width="65" height="64" viewBox="0 0 65 64" fill="none" xmlns="http://www.w3.org/2000/svg">
<rect x="0.5" width="64" height="64" rx="32" fill="#0F4082"/>
<path d="M41.185 48.1101H23.815C19.705 48.1101 16.375 44.7651 16.375 40.6551V29.5401C16.375 27.5001 17.635 24.9351 19.255 23.6751L27.34 17.3751C29.77 15.4851 33.655 15.3951 36.175 17.1651L45.445 23.6601C47.23 24.9051 48.625 27.5751 48.625 29.7501V40.6701C48.625 44.7651 45.295 48.1101 41.185 48.1101ZM28.72 19.1451L20.635 25.4451C19.57 26.2851 18.625 28.1901 18.625 29.5401V40.6551C18.625 43.5201 20.95 45.8601 23.815 45.8601H41.185C44.05 45.8601 46.375 43.5351 46.375 40.6701V29.7501C46.375 28.3101 45.34 26.3151 44.155 25.5051L34.885 19.0101C33.175 17.8101 30.355 17.8701 28.72 19.1451Z" fill="white"/>
<path d="M34.75 42.125H30.25C27.145 42.125 24.625 39.605 24.625 36.5V32C24.625 28.895 27.145 26.375 30.25 26.375H34.75C37.855 26.375 40.375 28.895 40.375 32V36.5C40.375 39.605 37.855 42.125 34.75 42.125ZM30.25 28.625C28.39 28.625 26.875 30.14 26.875 32V36.5C26.875 38.36 28.39 39.875 30.25 39.875H34.75C36.61 39.875 38.125 38.36 38.125 36.5V32C38.125 30.14 36.61 28.625 34.75 28.625H30.25Z" fill="white"/>
<path d="M32.5 42.125C31.885 42.125 31.375 41.615 31.375 41V27.5C31.375 26.885 31.885 26.375 32.5 26.375C33.115 26.375 33.625 26.885 33.625 27.5V41C33.625 41.615 33.115 42.125 32.5 42.125Z" fill="white"/>
<path d="M39.25 35.375H25.75C25.135 35.375 24.625 34.865 24.625 34.25C24.625 33.635 25.135 33.125 25.75 33.125H39.25C39.865 33.125 40.375 33.635 40.375 34.25C40.375 34.865 39.865 35.375 39.25 35.375Z" fill="white"/>
</svg>
