<svg width="64" height="64" viewBox="0 0 64 64" fill="none" xmlns="http://www.w3.org/2000/svg">
<rect width="64" height="64" rx="32" fill="#D6DFEC"/>
<path d="M32.0002 17.3333V46.6666M39.3335 20H29.3335C27.7422 20 26.2161 20.6321 25.0909 21.7573C23.9656 22.8826 23.3335 24.4087 23.3335 26C23.3335 27.5913 23.9656 29.1174 25.0909 30.2426C26.2161 31.3678 27.7422 32 29.3335 32H34.6668C35.4548 32 36.235 32.1552 36.9629 32.4567C37.6909 32.7582 38.3523 33.2002 38.9095 33.7573C39.4666 34.3145 39.9086 34.9759 40.2101 35.7039C40.5116 36.4318 40.6668 37.212 40.6668 38C40.6668 38.7879 40.5116 39.5681 40.2101 40.2961C39.9086 41.024 39.4666 41.6855 38.9095 42.2426C38.3523 42.7998 37.6909 43.2417 36.9629 43.5433C36.235 43.8448 35.4548 44 34.6668 44H24.6668" stroke="#0F4082" stroke-width="2" stroke-linecap="round" stroke-linejoin="round"/>
</svg>
