<svg width="64" height="64" viewBox="0 0 64 64" fill="none" xmlns="http://www.w3.org/2000/svg">
<rect width="64" height="64" rx="32" fill="#D6DFEC"/>
<path d="M23.8182 42V40.3333C23.8182 38.1232 24.6802 36.0036 26.2146 34.4408C27.749 32.878 29.83 32 32 32M32 32C34.17 32 36.251 32.878 37.7854 34.4408C39.3198 36.0036 40.1818 38.1232 40.1818 40.3333V42M32 32C33.302 32 34.5506 31.4732 35.4713 30.5355C36.3919 29.5979 36.9091 28.3261 36.9091 27C36.9091 25.6739 36.3919 24.4021 35.4713 23.4645C34.5506 22.5268 33.302 22 32 22C30.698 22 29.4494 22.5268 28.5287 23.4645C27.6081 24.4021 27.0909 25.6739 27.0909 27C27.0909 28.3261 27.6081 29.5979 28.5287 30.5355C29.4494 31.4732 30.698 32 32 32ZM14 42V40.3333C14 39.0073 14.5172 37.7355 15.4378 36.7978C16.3585 35.8601 17.6071 35.3333 18.9091 35.3333M18.9091 35.3333C19.7771 35.3333 20.6095 34.9821 21.2233 34.357C21.837 33.7319 22.1818 32.8841 22.1818 32C22.1818 31.1159 21.837 30.2681 21.2233 29.643C20.6095 29.0179 19.7771 28.6667 18.9091 28.6667C18.0411 28.6667 17.2087 29.0179 16.5949 29.643C15.9812 30.2681 15.6364 31.1159 15.6364 32C15.6364 32.8841 15.9812 33.7319 16.5949 34.357C17.2087 34.9821 18.0411 35.3333 18.9091 35.3333ZM50 42V40.3333C50 39.0073 49.4828 37.7355 48.5622 36.7978C47.6415 35.8601 46.3929 35.3333 45.0909 35.3333M45.0909 35.3333C45.9589 35.3333 46.7913 34.9821 47.4051 34.357C48.0188 33.7319 48.3636 32.8841 48.3636 32C48.3636 31.1159 48.0188 30.2681 47.4051 29.643C46.7913 29.0179 45.9589 28.6667 45.0909 28.6667C44.2229 28.6667 43.3905 29.0179 42.7767 29.643C42.163 30.2681 41.8182 31.1159 41.8182 32C41.8182 32.8841 42.163 33.7319 42.7767 34.357C43.3905 34.9821 44.2229 35.3333 45.0909 35.3333Z" stroke="#0F4082" stroke-width="2" stroke-linecap="round" stroke-linejoin="round"/>
</svg>
