<svg width="64" height="64" viewBox="0 0 64 64" fill="none" xmlns="http://www.w3.org/2000/svg">
<rect width="64" height="64" rx="16" fill="#0F4082"/>
<path d="M36.1547 43.625H27.8897C27.2297 43.625 26.3897 43.55 25.8347 42.98C25.2947 42.425 25.3097 41.735 25.3247 41.27V39.935C21.5447 37.415 19.0547 33.035 19.0547 28.865C19.0547 24.92 20.8247 21.23 23.8997 18.755C26.9747 16.28 31.0097 15.35 34.9547 16.22C38.7047 17.045 41.9447 19.55 43.6247 22.925C46.8797 29.48 43.7447 36.575 38.7347 39.95V41.075C38.7497 41.51 38.7647 42.305 38.1497 42.935C37.6847 43.385 37.0247 43.625 36.1547 43.625ZM27.5597 41.36C27.6347 41.36 27.7397 41.375 27.8747 41.375H36.1547C36.3047 41.375 36.4097 41.36 36.4697 41.345C36.4697 41.3 36.4697 41.24 36.4697 41.195V39.305C36.4697 38.915 36.6797 38.54 37.0097 38.345C41.4497 35.66 44.3897 29.525 41.5847 23.9C40.2047 21.125 37.5347 19.07 34.4447 18.395C31.1747 17.675 27.8297 18.44 25.2797 20.495C22.7297 22.55 21.2747 25.595 21.2747 28.865C21.2747 33.035 24.1547 36.635 27.0047 38.36C27.3497 38.57 27.5447 38.93 27.5447 39.32V41.345C27.5597 41.345 27.5597 41.345 27.5597 41.36Z" fill="white"/>
<path d="M37.2509 48.125C37.1459 48.125 37.0409 48.11 36.9359 48.08C33.6959 47.15 30.2909 47.15 27.0509 48.08C26.4509 48.245 25.8359 47.9 25.6559 47.3C25.4759 46.7 25.8359 46.085 26.4359 45.905C30.0659 44.87 33.9209 44.87 37.5509 45.905C38.1509 46.07 38.4959 46.7 38.3309 47.3C38.1959 47.81 37.7459 48.125 37.2509 48.125Z" fill="white"/>
</svg>
