<svg width="36" height="36" viewBox="0 0 36 36" fill="none" xmlns="http://www.w3.org/2000/svg">
<rect x="0.5" y="0.5" width="35" height="35" rx="17.5" fill="white"/>
<rect x="0.5" y="0.5" width="35" height="35" rx="17.5" stroke="#F3F4F6"/>
<path d="M13.44 14.8849C14.24 14.8849 14.88 14.2349 14.88 13.4449C14.88 12.6549 14.23 12.0049 13.44 12.0049C12.65 12.0049 12 12.6549 12 13.4449C12 14.2349 12.65 14.8849 13.44 14.8849ZM16.25 15.9749V23.9949H18.73V20.0349C18.73 18.9849 18.93 17.9749 20.22 17.9749C21.51 17.9749 21.51 19.1749 21.51 20.0949V23.9949H24V19.5949C24 17.4349 23.54 15.7749 21.02 15.7749C19.81 15.7749 19 16.4349 18.67 17.0649H18.64V15.9649H16.26L16.25 15.9749ZM12.2 15.9749H14.69V23.9949H12.2V15.9749Z" fill="#3360A0"/>
</svg>
