<svg width="74" height="87" viewBox="0 0 74 87" fill="none" xmlns="http://www.w3.org/2000/svg">
<path d="M61.8208 39.875H12.1792C10.5614 39.875 9.25 41.4168 9.25 43.3187V43.6813C9.25 45.5832 10.5614 47.125 12.1792 47.125H61.8208C63.4386 47.125 64.75 45.5832 64.75 43.6813V43.3187C64.75 41.4168 63.4386 39.875 61.8208 39.875Z" fill="black"/>
<path d="M61.8208 58H12.1792C10.5614 58 9.25 59.5418 9.25 61.4438V61.8062C9.25 63.7082 10.5614 65.25 12.1792 65.25H61.8208C63.4386 65.25 64.75 63.7082 64.75 61.8062V61.4438C64.75 59.5418 63.4386 58 61.8208 58Z" fill="black"/>
<path d="M61.8208 21.75H12.1792C10.5614 21.75 9.25 23.2918 9.25 25.1937V25.5563C9.25 27.4582 10.5614 29 12.1792 29H61.8208C63.4386 29 64.75 27.4582 64.75 25.5563V25.1937C64.75 23.2918 63.4386 21.75 61.8208 21.75Z" fill="black"/>
</svg>
