<svg width="64" height="64" viewBox="0 0 64 64" fill="none" xmlns="http://www.w3.org/2000/svg">
<rect width="64" height="64" rx="32" fill="#D6DFEC"/>
<path d="M40.8051 46.805C40.3401 46.805 39.8751 46.685 39.4551 46.43L33.4401 42.86C32.8101 42.845 32.1801 42.8 31.5801 42.71C31.1751 42.65 30.8301 42.38 30.6801 41.99C30.5301 41.6 30.6051 41.18 30.8751 40.865C31.8651 39.71 32.3751 38.33 32.3751 36.86C32.3751 33.23 29.1801 30.275 25.2501 30.275C23.7801 30.275 22.3701 30.68 21.1851 31.46C20.8551 31.67 20.4501 31.7 20.0901 31.535C19.7451 31.37 19.4901 31.04 19.4451 30.65C19.4001 30.23 19.3701 29.81 19.3701 29.375C19.3701 21.935 25.8201 15.89 33.7401 15.89C41.6601 15.89 48.1101 21.935 48.1101 29.375C48.1101 33.455 46.2201 37.205 42.8901 39.77L43.4001 43.85C43.5201 44.87 43.0701 45.83 42.2151 46.385C41.7951 46.655 41.3001 46.805 40.8051 46.805ZM33.7251 40.595C33.9351 40.58 34.1451 40.64 34.3251 40.76L40.6101 44.495C40.7751 44.6 40.9101 44.555 41.0001 44.495C41.0751 44.45 41.1951 44.33 41.1651 44.12L40.5801 39.38C40.5351 38.96 40.7151 38.555 41.0451 38.315C44.1051 36.17 45.8601 32.9 45.8601 29.345C45.8601 23.15 40.4301 18.11 33.7401 18.11C27.3051 18.11 22.0251 22.79 21.6351 28.67C22.7601 28.235 23.9751 27.995 25.2351 27.995C30.4101 27.995 34.6101 31.955 34.6101 36.83C34.6251 38.15 34.3101 39.425 33.7251 40.595Z" fill="#0F4082"/>
<path d="M20.8697 48.1251C20.4797 48.1251 20.1047 48.0201 19.7597 47.7951C19.0847 47.3601 18.7247 46.6101 18.8147 45.8151L19.1147 43.5051C17.0897 41.8551 15.8896 39.4101 15.8896 36.8451C15.8896 33.9201 17.4197 31.1901 19.9847 29.5551C21.5297 28.5501 23.3596 28.0101 25.2646 28.0101C30.4396 28.0101 34.6396 31.9701 34.6396 36.8451C34.6396 38.8251 33.9196 40.7751 32.5996 42.3201C30.9046 44.3751 28.3697 45.5751 25.5797 45.6651L21.9197 47.8401C21.5897 48.0351 21.2297 48.1251 20.8697 48.1251ZM25.2497 30.2601C23.7797 30.2601 22.3696 30.6651 21.1846 31.4451C19.2646 32.6751 18.1247 34.6851 18.1247 36.8451C18.1247 38.9301 19.1447 40.8351 20.9447 42.0651C21.2897 42.3051 21.4697 42.7101 21.4247 43.1301L21.0946 45.6951L24.6796 43.5651C24.8596 43.4601 25.0547 43.4001 25.2497 43.4001C27.4547 43.4001 29.5397 42.4551 30.8597 40.8501C31.8497 39.6801 32.3747 38.3 32.3747 36.83C32.3747 33.215 29.1797 30.2601 25.2497 30.2601Z" fill="#0F4082"/>
</svg>
