<svg width="64" height="64" viewBox="0 0 64 64" fill="none" xmlns="http://www.w3.org/2000/svg">
<rect width="64" height="64" rx="32" fill="#D6DFEC"/>
<path d="M40.3405 40.955H23.6605C17.6905 40.955 15.8755 39.14 15.8755 33.17V23.66C15.8755 17.69 17.6905 15.875 23.6605 15.875H40.3255C46.2955 15.875 48.1105 17.69 48.1105 23.66V33.155C48.1255 39.14 46.3105 40.955 40.3405 40.955ZM23.6605 18.125C18.9505 18.125 18.1255 18.95 18.1255 23.66V33.155C18.1255 37.865 18.9505 38.69 23.6605 38.69H40.3255C45.0355 38.69 45.8605 37.865 45.8605 33.155V23.66C45.8605 18.95 45.0355 18.125 40.3255 18.125H23.6605Z" fill="#0F4082"/>
<path d="M32 48.125C31.385 48.125 30.875 47.615 30.875 47V39.83C30.875 39.215 31.385 38.705 32 38.705C32.615 38.705 33.125 39.215 33.125 39.83V47C33.125 47.615 32.615 48.125 32 48.125Z" fill="#0F4082"/>
<path d="M47.0005 34.625H17.0005C16.3855 34.625 15.8755 34.115 15.8755 33.5C15.8755 32.885 16.3855 32.375 17.0005 32.375H47.0005C47.6155 32.375 48.1255 32.885 48.1255 33.5C48.1255 34.115 47.6155 34.625 47.0005 34.625Z" fill="#0F4082"/>
<path d="M38.75 48.125H25.25C24.635 48.125 24.125 47.615 24.125 47C24.125 46.385 24.635 45.875 25.25 45.875H38.75C39.365 45.875 39.875 46.385 39.875 47C39.875 47.615 39.365 48.125 38.75 48.125Z" fill="#0F4082"/>
</svg>
