<svg width="64" height="64" viewBox="0 0 64 64" fill="none" xmlns="http://www.w3.org/2000/svg">
<rect width="64" height="64" rx="32" fill="#D6DFEC"/>
<path d="M32 48.125C25.175 48.125 19.625 42.575 19.625 35.75V28.25C19.625 21.425 25.175 15.875 32 15.875C38.825 15.875 44.375 21.425 44.375 28.25V35.75C44.375 42.575 38.825 48.125 32 48.125ZM32 18.125C26.42 18.125 21.875 22.67 21.875 28.25V35.75C21.875 41.33 26.42 45.875 32 45.875C37.58 45.875 42.125 41.33 42.125 35.75V28.25C42.125 22.67 37.58 18.125 32 18.125Z" fill="#0F4082"/>
<path d="M32 31.625C30.14 31.625 28.625 30.11 28.625 28.25V25.25C28.625 23.39 30.14 21.875 32 21.875C33.86 21.875 35.375 23.39 35.375 25.25V28.25C35.375 30.11 33.86 31.625 32 31.625ZM32 24.125C31.385 24.125 30.875 24.635 30.875 25.25V28.25C30.875 28.865 31.385 29.375 32 29.375C32.615 29.375 33.125 28.865 33.125 28.25V25.25C33.125 24.635 32.615 24.125 32 24.125Z" fill="#0F4082"/>
<path d="M32 24.125C31.385 24.125 30.875 23.615 30.875 23V17C30.875 16.385 31.385 15.875 32 15.875C32.615 15.875 33.125 16.385 33.125 17V23C33.125 23.615 32.615 24.125 32 24.125Z" fill="#0F4082"/>
</svg>
