<svg width="65" height="64" viewBox="0 0 65 64" fill="none" xmlns="http://www.w3.org/2000/svg">
<rect x="0.5" width="64" height="64" rx="32" fill="#0F4082"/>
<path d="M30.7605 36.4297C30.7605 36.8281 30.6198 37.168 30.3386 37.4492L26.946 40.8418C26.6648 41.123 26.3191 41.2637 25.9089 41.2637C25.4987 41.2637 25.153 41.1289 24.8718 40.8594C24.5905 40.5898 24.4499 40.2441 24.4499 39.8223C24.4499 39.4121 24.5905 39.0664 24.8718 38.7852L28.2644 35.3926C28.5456 35.1113 28.8913 34.9707 29.3015 34.9707C29.7116 34.9707 30.0573 35.1113 30.3386 35.3926C30.6198 35.6738 30.7605 36.0195 30.7605 36.4297ZM27.157 34.6016C27.157 35.0117 27.0163 35.3574 26.7351 35.6387L24.2214 38.1348C23.9402 38.416 23.6003 38.5566 23.2019 38.5566C22.7917 38.5566 22.446 38.4219 22.1648 38.1523C21.8835 37.8828 21.7429 37.5371 21.7429 37.1152C21.7429 36.7051 21.8835 36.3594 22.1648 36.0781L24.6609 33.5645C24.7898 33.4355 24.948 33.3359 25.1355 33.2656C25.323 33.1953 25.5105 33.1543 25.698 33.1426C26.1081 33.1426 26.4538 33.2832 26.7351 33.5645C27.0163 33.8457 27.157 34.1914 27.157 34.6016ZM33.2214 39.4004C33.2214 39.7871 33.0749 40.127 32.782 40.4199L29.653 43.5488C29.3718 43.8301 29.0261 43.9707 28.6159 43.9707C28.2058 43.9707 27.8601 43.8359 27.5788 43.5664C27.2976 43.2969 27.157 42.9512 27.157 42.5293C27.157 42.1191 27.2976 41.7734 27.5788 41.4922L30.7253 38.3633C31.0183 38.0703 31.3581 37.9238 31.7448 37.9238C32.1433 37.9238 32.489 38.0645 32.782 38.3457C33.0749 38.627 33.2214 38.9785 33.2214 39.4004ZM31.323 46.6953C30.9128 46.6953 30.5671 46.5547 30.2859 46.2734C30.0046 45.9922 29.864 45.6465 29.864 45.2363C29.864 44.8262 30.0046 44.4805 30.2859 44.1992L32.6589 41.8438C32.9519 41.5508 33.2976 41.4043 33.696 41.4043C34.1062 41.4043 34.4519 41.5508 34.7331 41.8438C35.0144 42.1367 35.155 42.4883 35.155 42.8984C35.155 43.0859 35.114 43.2676 35.032 43.4434C34.9499 43.6191 34.8445 43.7715 34.7155 43.9004L32.3601 46.2734C32.0788 46.5547 31.7331 46.6953 31.323 46.6953ZM48.2507 26.4277C48.2507 27.459 48.1159 28.3613 47.8464 29.1348C47.5769 29.9082 47.2136 30.6289 46.7566 31.2969C46.2995 31.9648 45.7722 32.5977 45.1745 33.1953C44.5769 33.793 43.9441 34.4375 43.2761 35.1289L32.905 24.7051L27.6843 29.8906C27.3327 30.2188 26.9226 30.3828 26.4538 30.3828C25.9734 30.3828 25.5691 30.2188 25.2409 29.8906C24.9128 29.5625 24.7429 29.1523 24.7312 28.6602C24.7312 28.1797 24.9011 27.7695 25.2409 27.4297L32.7644 19.9414C33.6316 19.0859 34.6159 18.4355 35.7175 17.9902C36.8191 17.5449 37.9792 17.3164 39.198 17.3047C40.4519 17.3047 41.6296 17.5449 42.7312 18.0254C43.8327 18.5059 44.7878 19.1621 45.5964 19.9941C46.405 20.8262 47.0495 21.793 47.53 22.8945C48.0105 23.9961 48.2507 25.1738 48.2507 26.4277ZM43.4695 37.0449C43.4695 37.4551 43.3288 37.8008 43.0476 38.082C42.7663 38.3633 42.4206 38.5039 42.0105 38.5039C41.612 38.5039 41.2722 38.3633 40.9909 38.082L35.5945 32.668C35.5124 32.5859 35.4011 32.5449 35.2605 32.5449C35.1316 32.5449 35.0202 32.5859 34.9265 32.668C34.8327 32.75 34.7859 32.8613 34.7859 33.002C34.7859 33.1191 34.8327 33.2246 34.9265 33.3184L40.8327 39.2246C41.1257 39.5176 41.2722 39.8633 41.2722 40.2617C41.2722 40.6719 41.1316 41.0176 40.8503 41.2988C40.5691 41.5801 40.2175 41.7207 39.7956 41.7207C39.3972 41.7207 39.0573 41.5801 38.7761 41.2988L32.8698 35.3926C32.7878 35.3105 32.6765 35.2695 32.5359 35.2695C32.407 35.2695 32.3015 35.3105 32.2195 35.3926C32.1374 35.4746 32.0905 35.5859 32.0788 35.7266C32.0788 35.8438 32.1257 35.9492 32.2195 36.043L38.1257 41.9492C38.407 42.2305 38.5476 42.5762 38.5476 42.9863C38.5476 43.3965 38.407 43.7422 38.1257 44.0234C37.8445 44.3047 37.4988 44.4453 37.0886 44.4453C36.7839 44.4453 36.5378 44.3809 36.3503 44.252C36.1628 44.123 35.9695 43.9473 35.7702 43.7246C35.8874 43.4785 35.946 43.1914 35.946 42.8633C35.946 42.5469 35.8874 42.2539 35.7702 41.9844C35.653 41.7148 35.489 41.4746 35.278 41.2637C35.0671 41.0527 34.821 40.8945 34.5398 40.7891C34.2585 40.6836 33.9597 40.625 33.6433 40.6133C33.8777 40.25 33.9948 39.8457 33.9948 39.4004C33.9948 39.084 33.9362 38.791 33.8191 38.5215C33.7019 38.252 33.5437 38.0117 33.3445 37.8008C33.1452 37.5898 32.905 37.4258 32.6237 37.3086C32.3425 37.1914 32.0554 37.1328 31.7624 37.1328H31.6042C31.5573 37.1328 31.4987 37.1445 31.4284 37.168C31.4636 37.0391 31.4929 36.916 31.5163 36.7988C31.5398 36.6816 31.5515 36.5527 31.5515 36.4121C31.5515 36.1074 31.4929 35.8203 31.3757 35.5508C31.2585 35.2812 31.1003 35.041 30.9011 34.8301C30.7019 34.6191 30.4616 34.4551 30.1804 34.3379C29.8991 34.2207 29.6062 34.1621 29.3015 34.1621C29.0554 34.1621 28.821 34.2031 28.5984 34.2852C28.3757 34.3672 28.1589 34.4785 27.948 34.6191C27.948 34.3027 27.8894 34.0098 27.7722 33.7402C27.655 33.4707 27.4968 33.2305 27.2976 33.0195C27.0984 32.8086 26.864 32.6445 26.5945 32.5273C26.3249 32.4102 26.0261 32.3516 25.698 32.3516C25.405 32.3516 25.1179 32.4043 24.8366 32.5098C24.5554 32.6152 24.3093 32.7793 24.0984 33.002L21.8659 35.252C21.1628 34.5371 20.5007 33.875 19.8796 33.2656C19.2585 32.6562 18.7195 32.0117 18.2624 31.332C17.8054 30.6523 17.4362 29.9141 17.155 29.1172C16.8738 28.3203 16.739 27.3828 16.7507 26.3047C16.7507 25.0625 16.9909 23.8965 17.4714 22.8066C17.9519 21.7168 18.6081 20.7676 19.4402 19.959C20.2722 19.1504 21.239 18.5059 22.3405 18.0254C23.4421 17.5449 24.6081 17.3047 25.8386 17.3047C26.9753 17.3047 28.0652 17.5039 29.1081 17.9023C30.1511 18.3008 31.0945 18.8867 31.9382 19.6602L24.6784 26.8672C24.4441 27.1016 24.2624 27.3711 24.1335 27.6758C24.0046 27.9805 23.9343 28.3086 23.9226 28.6602C23.9226 29.0117 23.987 29.3398 24.1159 29.6445C24.2448 29.9492 24.4265 30.2129 24.6609 30.4355C24.8952 30.6582 25.1648 30.8398 25.4695 30.9805C25.7741 31.1211 26.1023 31.1914 26.4538 31.1914C26.7937 31.1914 27.1159 31.127 27.4206 30.998C27.7253 30.8691 28.0007 30.6875 28.2468 30.4531L32.905 25.8125L43.0476 36.0078C43.3288 36.2891 43.4695 36.6348 43.4695 37.0449ZM33.2214 46.5195L35.1726 44.5684C35.2663 44.7793 35.3132 44.9902 35.3132 45.2012C35.3132 45.6113 35.1726 45.957 34.8913 46.2383C34.6101 46.5195 34.2644 46.6602 33.8542 46.6602C33.6433 46.6602 33.4323 46.6133 33.2214 46.5195Z" fill="white"/>
</svg>
