<svg width="64" height="64" viewBox="0 0 64 64" fill="none" xmlns="http://www.w3.org/2000/svg">
<rect width="64" height="64" rx="32" fill="#0F4082"/>
<path d="M47.7506 22.9998V31.9998C47.7506 32.2981 47.6321 32.5843 47.4211 32.7953C47.2101 33.0062 46.924 33.1248 46.6256 33.1248C46.3273 33.1248 46.0411 33.0062 45.8301 32.7953C45.6192 32.5843 45.5006 32.2981 45.5006 31.9998V25.7152L33.9216 37.2957C33.8171 37.4003 33.693 37.4833 33.5564 37.5399C33.4199 37.5965 33.2735 37.6256 33.1256 37.6256C32.9778 37.6256 32.8314 37.5965 32.6948 37.5399C32.5582 37.4833 32.4342 37.4003 32.3297 37.2957L27.5006 32.4652L18.1716 41.7957C17.9605 42.0068 17.6742 42.1254 17.3756 42.1254C17.0771 42.1254 16.7908 42.0068 16.5797 41.7957C16.3686 41.5846 16.25 41.2983 16.25 40.9998C16.25 40.7012 16.3686 40.4149 16.5797 40.2038L26.7047 30.0788C26.8092 29.9742 26.9332 29.8912 27.0698 29.8346C27.2064 29.778 27.3528 29.7489 27.5006 29.7489C27.6485 29.7489 27.7949 29.778 27.9314 29.8346C28.068 29.8912 28.1921 29.9742 28.2966 30.0788L33.1256 34.9093L43.9102 24.1248H37.6256C37.3273 24.1248 37.0411 24.0062 36.8301 23.7953C36.6192 23.5843 36.5006 23.2981 36.5006 22.9998C36.5006 22.7014 36.6192 22.4152 36.8301 22.2043C37.0411 21.9933 37.3273 21.8748 37.6256 21.8748H46.6256C46.924 21.8748 47.2101 21.9933 47.4211 22.2043C47.6321 22.4152 47.7506 22.7014 47.7506 22.9998Z" fill="white"/>
</svg>
