<svg width="65" height="64" viewBox="0 0 65 64" fill="none" xmlns="http://www.w3.org/2000/svg">
<rect x="0.5" width="64" height="64" rx="32" fill="#D6DFEC"/>
<path d="M28.2394 31.43C28.1944 31.43 28.1644 31.43 28.1194 31.43C28.0444 31.415 27.9394 31.415 27.8494 31.43C23.4994 31.295 20.2144 27.875 20.2144 23.66C20.2144 19.37 23.7094 15.875 27.9994 15.875C32.2894 15.875 35.7844 19.37 35.7844 23.66C35.7694 27.875 32.4694 31.295 28.2844 31.43C28.2694 31.43 28.2544 31.43 28.2394 31.43ZM27.9994 18.125C24.9544 18.125 22.4644 20.615 22.4644 23.66C22.4644 26.66 24.8044 29.075 27.7894 29.18C27.8794 29.165 28.0744 29.165 28.2694 29.18C31.2094 29.045 33.5194 26.63 33.5344 23.66C33.5344 20.615 31.0444 18.125 27.9994 18.125Z" fill="#0F4082"/>
<path d="M39.3096 31.625C39.2646 31.625 39.2196 31.625 39.1746 31.61C38.5596 31.67 37.9296 31.235 37.8696 30.62C37.8096 30.005 38.1846 29.45 38.7996 29.375C38.9796 29.36 39.1746 29.36 39.3396 29.36C41.5296 29.24 43.2396 27.44 43.2396 25.235C43.2396 22.955 41.3946 21.11 39.1146 21.11C38.4996 21.125 37.9896 20.615 37.9896 20C37.9896 19.385 38.4996 18.875 39.1146 18.875C42.6246 18.875 45.4896 21.74 45.4896 25.25C45.4896 28.7 42.7896 31.49 39.3546 31.625C39.3396 31.625 39.3246 31.625 39.3096 31.625Z" fill="#0F4082"/>
<path d="M28.2544 47.825C25.3144 47.825 22.3594 47.075 20.1244 45.575C18.0394 44.195 16.8994 42.305 16.8994 40.25C16.8994 38.195 18.0394 36.29 20.1244 34.895C24.6244 31.91 31.9144 31.91 36.3844 34.895C38.4544 36.275 39.6094 38.165 39.6094 40.22C39.6094 42.275 38.4694 44.18 36.3844 45.575C34.1344 47.075 31.1944 47.825 28.2544 47.825ZM21.3694 36.785C19.9294 37.745 19.1494 38.975 19.1494 40.265C19.1494 41.54 19.9444 42.77 21.3694 43.715C25.1044 46.22 31.4044 46.22 35.1394 43.715C36.5794 42.755 37.3594 41.525 37.3594 40.235C37.3594 38.96 36.5644 37.73 35.1394 36.785C31.4044 34.295 25.1044 34.295 21.3694 36.785Z" fill="#0F4082"/>
<path d="M42.0093 45.125C41.4843 45.125 41.0193 44.765 40.9143 44.225C40.7943 43.61 41.1843 43.025 41.7843 42.89C42.7293 42.695 43.5993 42.32 44.2743 41.795C45.1293 41.15 45.5943 40.34 45.5943 39.485C45.5943 38.63 45.1293 37.82 44.2893 37.19C43.6293 36.68 42.8043 36.32 41.8293 36.095C41.2293 35.96 40.8393 35.36 40.9743 34.745C41.1093 34.145 41.7093 33.755 42.3243 33.89C43.6143 34.175 44.7393 34.685 45.6543 35.39C47.0493 36.44 47.8443 37.925 47.8443 39.485C47.8443 41.045 47.0343 42.53 45.6393 43.595C44.7093 44.315 43.5393 44.84 42.2493 45.095C42.1593 45.125 42.0843 45.125 42.0093 45.125Z" fill="#0F4082"/>
</svg>
