<svg width="56" height="56" viewBox="0 0 56 56" fill="none" xmlns="http://www.w3.org/2000/svg">
<rect width="56" height="56" rx="12" fill="#AD8E63"/>
<path d="M24.2134 26.4933C24.0801 26.48 23.9201 26.48 23.7734 26.4933C20.6001 26.3866 18.0801 23.7866 18.0801 20.5866C18.0801 17.32 20.7201 14.6666 24.0001 14.6666C27.2667 14.6666 29.9201 17.32 29.9201 20.5866C29.9067 23.7866 27.3867 26.3866 24.2134 26.4933Z" stroke="white" stroke-width="1.5" stroke-linecap="round" stroke-linejoin="round"/>
<path d="M33.8801 17.3334C36.4668 17.3334 38.5468 19.4267 38.5468 22C38.5468 24.52 36.5468 26.5734 34.0535 26.6667C33.9468 26.6534 33.8268 26.6534 33.7068 26.6667" stroke="white" stroke-width="1.5" stroke-linecap="round" stroke-linejoin="round"/>
<path d="M17.5467 31.4134C14.32 33.5734 14.32 37.0934 17.5467 39.24C21.2134 41.6934 27.2267 41.6934 30.8934 39.24C34.12 37.08 34.12 33.56 30.8934 31.4134C27.24 28.9734 21.2267 28.9734 17.5467 31.4134Z" stroke="white" stroke-width="1.5" stroke-linecap="round" stroke-linejoin="round"/>
<path d="M36.4534 38.6666C37.4134 38.4666 38.32 38.08 39.0667 37.5066C41.1467 35.9466 41.1467 33.3733 39.0667 31.8133C38.3334 31.2533 37.44 30.88 36.4934 30.6666" stroke="white" stroke-width="1.5" stroke-linecap="round" stroke-linejoin="round"/>
</svg>
