<svg width="64" height="64" viewBox="0 0 64 64" fill="none" xmlns="http://www.w3.org/2000/svg">
<rect width="64" height="64" rx="32" fill="#0F4082"/>
<path d="M27.7398 31.43C27.6948 31.43 27.6648 31.43 27.6198 31.43C27.5448 31.415 27.4398 31.415 27.3498 31.43C22.9998 31.295 19.7148 27.875 19.7148 23.66C19.7148 19.37 23.2098 15.875 27.4998 15.875C31.7898 15.875 35.2848 19.37 35.2848 23.66C35.2698 27.875 31.9698 31.295 27.7848 31.43C27.7698 31.43 27.7548 31.43 27.7398 31.43ZM27.4998 18.125C24.4548 18.125 21.9648 20.615 21.9648 23.66C21.9648 26.66 24.3048 29.075 27.2898 29.18C27.3798 29.165 27.5748 29.165 27.7698 29.18C30.7098 29.045 33.0198 26.63 33.0348 23.66C33.0348 20.615 30.5448 18.125 27.4998 18.125Z" fill="white"/>
<path d="M38.8096 31.625C38.7646 31.625 38.7196 31.625 38.6746 31.61C38.0596 31.67 37.4296 31.235 37.3696 30.62C37.3096 30.005 37.6846 29.45 38.2996 29.375C38.4796 29.36 38.6746 29.36 38.8396 29.36C41.0296 29.24 42.7396 27.44 42.7396 25.235C42.7396 22.955 40.8946 21.11 38.6146 21.11C37.9996 21.125 37.4896 20.615 37.4896 20C37.4896 19.385 37.9996 18.875 38.6146 18.875C42.1246 18.875 44.9896 21.74 44.9896 25.25C44.9896 28.7 42.2896 31.49 38.8546 31.625C38.8396 31.625 38.8246 31.625 38.8096 31.625Z" fill="white"/>
<path d="M27.7534 47.825C24.8134 47.825 21.8584 47.075 19.6234 45.575C17.5384 44.195 16.3984 42.305 16.3984 40.25C16.3984 38.195 17.5384 36.29 19.6234 34.895C24.1234 31.91 31.4134 31.91 35.8834 34.895C37.9534 36.275 39.1084 38.165 39.1084 40.22C39.1084 42.275 37.9684 44.18 35.8834 45.575C33.6334 47.075 30.6934 47.825 27.7534 47.825ZM20.8684 36.785C19.4284 37.745 18.6484 38.975 18.6484 40.265C18.6484 41.54 19.4434 42.77 20.8684 43.715C24.6034 46.22 30.9034 46.22 34.6384 43.715C36.0784 42.755 36.8584 41.525 36.8584 40.235C36.8584 38.96 36.0634 37.73 34.6384 36.785C30.9034 34.295 24.6034 34.295 20.8684 36.785Z" fill="white"/>
<path d="M41.5093 45.125C40.9843 45.125 40.5193 44.765 40.4143 44.225C40.2943 43.61 40.6843 43.025 41.2843 42.89C42.2293 42.695 43.0993 42.32 43.7743 41.795C44.6293 41.15 45.0943 40.34 45.0943 39.485C45.0943 38.63 44.6293 37.82 43.7893 37.19C43.1293 36.68 42.3043 36.32 41.3293 36.095C40.7293 35.96 40.3393 35.36 40.4743 34.745C40.6093 34.145 41.2093 33.755 41.8243 33.89C43.1143 34.175 44.2393 34.685 45.1543 35.39C46.5493 36.44 47.3443 37.925 47.3443 39.485C47.3443 41.045 46.5343 42.53 45.1393 43.595C44.2093 44.315 43.0393 44.84 41.7493 45.095C41.6593 45.125 41.5843 45.125 41.5093 45.125Z" fill="white"/>
</svg>
