<svg width="64" height="64" viewBox="0 0 64 64" fill="none" xmlns="http://www.w3.org/2000/svg">
<rect width="64" height="64" rx="32" fill="#D6DFEC"/>
<path d="M40.4902 48.005C39.6952 48.005 38.6752 47.75 37.4002 47L32.9152 44.345C32.4502 44.075 31.5502 44.075 31.1002 44.345L26.6002 47C23.9452 48.575 22.3852 47.945 21.6802 47.435C20.9902 46.925 19.9102 45.62 20.6152 42.62L21.6802 38.015C21.8002 37.535 21.5602 36.71 21.2002 36.35L17.4802 32.63C15.6202 30.77 15.7702 29.18 16.0252 28.4C16.2802 27.62 17.0902 26.24 19.6702 25.805L24.4552 25.01C24.9052 24.935 25.5502 24.455 25.7452 24.05L28.4002 18.755C29.6002 16.34 31.1752 15.98 32.0002 15.98C32.8252 15.98 34.4002 16.34 35.6002 18.755L38.2402 24.035C38.4502 24.44 39.0952 24.92 39.5452 24.995L44.3302 25.79C46.9252 26.225 47.7352 27.605 47.9752 28.385C48.2152 29.165 48.3652 30.755 46.5202 32.615L42.8002 36.35C42.4402 36.71 42.2152 37.52 42.3202 38.015L43.3852 42.62C44.0752 45.62 43.0102 46.925 42.3202 47.435C41.9452 47.705 41.3452 48.005 40.4902 48.005ZM32.0002 41.885C32.7352 41.885 33.4702 42.065 34.0552 42.41L38.5402 45.065C39.8452 45.845 40.6702 45.845 40.9852 45.62C41.3002 45.395 41.5252 44.6 41.1952 43.13L40.1302 38.525C39.8452 37.28 40.3102 35.675 41.2102 34.76L44.9302 31.04C45.6652 30.305 45.9952 29.585 45.8452 29.09C45.6802 28.595 44.9902 28.19 43.9702 28.025L39.1852 27.23C38.0302 27.035 36.7702 26.105 36.2452 25.055L33.6052 19.775C33.1252 18.815 32.5252 18.245 32.0002 18.245C31.4752 18.245 30.8752 18.815 30.4102 19.775L27.7552 25.055C27.2302 26.105 25.9702 27.035 24.8152 27.23L20.0452 28.025C19.0252 28.19 18.3352 28.595 18.1702 29.09C18.0052 29.585 18.3502 30.32 19.0852 31.04L22.8052 34.76C23.7052 35.66 24.1702 37.28 23.8852 38.525L22.8202 43.13C22.4752 44.615 22.7152 45.395 23.0302 45.62C23.3452 45.845 24.1552 45.83 25.4752 45.065L29.9602 42.41C30.5302 42.065 31.2652 41.885 32.0002 41.885Z" fill="#0F4082"/>
</svg>
