<svg width="65" height="64" viewBox="0 0 65 64" fill="none" xmlns="http://www.w3.org/2000/svg">
<rect x="0.5" width="64" height="64" rx="32" fill="#0F4082"/>
<path d="M32.5155 39.4999C31.2405 39.4999 29.9505 39.1699 28.9455 38.5249L19.9155 32.6299C18.2355 31.5349 17.2305 29.6899 17.2305 27.6799C17.2305 25.6699 18.2355 23.8249 19.9155 22.7299L28.9605 16.8499C30.9705 15.5449 34.1055 15.5449 36.1005 16.8649L45.0855 22.7599C46.7505 23.8549 47.7555 25.6999 47.7555 27.6949C47.7555 29.6899 46.7505 31.5349 45.0855 32.6299L36.1005 38.5249C35.0955 39.1849 33.8055 39.4999 32.5155 39.4999ZM32.5155 18.1249C31.6605 18.1249 30.8055 18.3199 30.1905 18.7399L21.1605 24.6199C20.1105 25.3099 19.4955 26.4199 19.4955 27.6799C19.4955 28.9399 20.0955 30.0499 21.1605 30.7399L30.1905 36.6349C31.4355 37.4449 33.6255 37.4449 34.8705 36.6349L43.8555 30.7399C44.9055 30.0499 45.5055 28.9399 45.5055 27.6799C45.5055 26.4199 44.9055 25.3099 43.8555 24.6199L34.8705 18.7249C34.2405 18.3349 33.3855 18.1249 32.5155 18.1249Z" fill="white"/>
<path d="M32.4998 48.1251C31.8398 48.1251 31.1648 48.0351 30.6248 47.8551L25.8398 46.2651C23.5748 45.5151 21.7898 43.0401 21.8048 40.6551L21.8198 33.6201C21.8198 33.0051 22.3298 32.4951 22.9448 32.4951C23.5598 32.4951 24.0698 33.0051 24.0698 33.6201L24.0548 40.6551C24.0548 42.0651 25.2248 43.6851 26.5598 44.1351L31.3448 45.7251C31.9448 45.9201 33.0548 45.9201 33.6548 45.7251L38.4398 44.1351C39.7748 43.6851 40.9448 42.0651 40.9448 40.6701V33.7101C40.9448 33.0951 41.4548 32.5851 42.0698 32.5851C42.6848 32.5851 43.1948 33.0951 43.1948 33.7101V40.6701C43.1948 43.0551 41.4248 45.5151 39.1598 46.2801L34.3748 47.8701C33.8348 48.0351 33.1598 48.1251 32.4998 48.1251Z" fill="white"/>
<path d="M46.6016 37.625C45.9866 37.625 45.4766 37.115 45.4766 36.5V27.5C45.4766 26.885 45.9866 26.375 46.6016 26.375C47.2166 26.375 47.7266 26.885 47.7266 27.5V36.5C47.7266 37.115 47.2166 37.625 46.6016 37.625Z" fill="white"/>
</svg>
