<svg width="64" height="64" viewBox="0 0 64 64" fill="none" xmlns="http://www.w3.org/2000/svg">
<rect width="64" height="64" rx="32" fill="#D6DFEC"/>
<path d="M49.3974 15.7559C49.3235 15.4759 49.1762 15.2204 48.9706 15.0157C48.765 14.811 48.5085 14.6643 48.2272 14.5907C44.8606 13.7198 41.3154 13.8135 37.9999 14.861C34.6844 15.9086 31.7335 17.8673 29.4871 20.5116L27.6554 22.6753L23.3816 21.649C22.3422 21.289 21.2071 21.3152 20.1855 21.7227C19.164 22.1302 18.3248 22.8917 17.8225 23.8667L14.2117 30.2403C14.0853 30.4634 14.0134 30.7131 14.0017 30.9691C13.99 31.225 14.039 31.4801 14.1445 31.7138C14.2501 31.9474 14.4094 32.1531 14.6095 32.3142C14.8097 32.4752 15.045 32.5872 15.2966 32.641L20.3403 33.718C19.913 35.0128 19.608 36.3445 19.4294 37.6957C19.3969 37.9438 19.422 38.196 19.5028 38.4328C19.5836 38.6697 19.718 38.8849 19.8955 39.062L24.9834 44.1281C25.136 44.2801 25.3172 44.4006 25.5166 44.4828C25.716 44.5649 25.9297 44.6071 26.1455 44.607L26.2866 44.6004C27.6746 44.4783 29.0456 44.2099 30.3767 43.7996L31.4337 48.7089C31.4877 48.9594 31.6001 49.1938 31.7619 49.3931C31.9237 49.5923 32.1302 49.7509 32.3649 49.8561C32.5995 49.9612 32.8557 50.0099 33.1128 49.9983C33.3699 49.9867 33.6206 49.9151 33.8447 49.7892L40.2539 46.1906C41.1562 45.6448 41.8609 44.8277 42.2666 43.8572C42.6722 42.8867 42.7577 41.813 42.5106 40.791L41.4143 36.2805L43.4445 34.4223C46.1102 32.1916 48.0847 29.2529 49.1383 25.9483C50.1919 22.6437 50.2828 19.1091 49.3974 15.7559ZM18.1656 29.9102L20.7194 25.3996C20.8783 25.0937 21.1487 24.8597 21.4752 24.7458C21.8017 24.6319 22.1596 24.6465 22.4756 24.7868L25.2953 25.4666L24.2285 26.7283C23.2156 27.9344 22.3404 29.2488 21.6188 30.6472L18.1656 29.9102ZM38.6323 43.347L34.1762 45.8506L33.4705 42.574C34.9001 41.865 36.2318 40.9752 37.4325 39.9265L38.652 38.8103L39.3151 41.5297C39.4011 41.8658 39.3818 42.22 39.2597 42.5449C39.1377 42.8697 38.9187 43.1496 38.6323 43.347ZM41.283 31.9644L35.2349 37.498C32.8415 39.5593 29.8891 40.8694 26.7495 41.2633L22.8022 37.3346C23.3321 34.2 24.6925 31.263 26.7429 28.8267L29.4986 25.5696C29.5443 25.5221 29.587 25.4719 29.6266 25.4192L31.9818 22.6329C33.7235 20.5852 35.9797 19.0344 38.52 18.1386C41.0603 17.2428 43.7938 17.0342 46.4415 17.534C46.9554 20.1786 46.7479 22.912 45.8407 25.4497C44.9334 27.9873 43.3596 30.238 41.283 31.9644ZM39.7681 21.8909C39.2811 21.8909 38.8052 22.0347 38.4003 22.304C37.9954 22.5734 37.6799 22.9562 37.4936 23.4042C37.3072 23.8521 37.2585 24.345 37.3535 24.8205C37.4485 25.296 37.6829 25.7328 38.0272 26.0757C38.3715 26.4185 38.8102 26.652 39.2878 26.7465C39.7653 26.8411 40.2603 26.7926 40.7102 26.607C41.1601 26.4215 41.5446 26.1073 41.8151 25.7042C42.0856 25.3011 42.23 24.8271 42.23 24.3423C42.23 23.6921 41.9706 23.0686 41.5089 22.6089C41.0472 22.1492 40.421 21.8909 39.7681 21.8909Z" fill="#0F4082"/>
</svg>
