<svg width="64" height="64" viewBox="0 0 64 64" fill="none" xmlns="http://www.w3.org/2000/svg">
<rect width="64" height="64" rx="32" fill="#D6DFEC"/>
<path d="M31.9995 33.125C27.2445 33.125 23.3745 29.255 23.3745 24.5C23.3745 19.745 27.2445 15.875 31.9995 15.875C36.7545 15.875 40.6245 19.745 40.6245 24.5C40.6245 29.255 36.7545 33.125 31.9995 33.125ZM31.9995 18.125C28.4895 18.125 25.6245 20.99 25.6245 24.5C25.6245 28.01 28.4895 30.875 31.9995 30.875C35.5095 30.875 38.3745 28.01 38.3745 24.5C38.3745 20.99 35.5095 18.125 31.9995 18.125Z" fill="#0F4082"/>
<path d="M19.1152 48.125C18.5002 48.125 17.9902 47.615 17.9902 47C17.9902 40.595 24.2752 35.375 32.0002 35.375C33.5152 35.375 35.0002 35.57 36.4402 35.975C37.0402 36.14 37.3852 36.755 37.2202 37.355C37.0552 37.955 36.4402 38.3 35.8402 38.135C34.6102 37.79 33.3202 37.625 32.0002 37.625C25.5202 37.625 20.2402 41.825 20.2402 47C20.2402 47.615 19.7302 48.125 19.1152 48.125Z" fill="#0F4082"/>
<path d="M41.0005 48.125C38.5105 48.125 36.1705 46.805 34.9105 44.66C34.2355 43.58 33.8755 42.305 33.8755 41C33.8755 38.81 34.8505 36.785 36.5455 35.435C37.8055 34.43 39.3955 33.875 41.0005 33.875C44.9305 33.875 48.1255 37.07 48.1255 41C48.1255 42.305 47.7655 43.58 47.0905 44.675C46.7155 45.305 46.2355 45.875 45.6655 46.355C44.4205 47.495 42.7555 48.125 41.0005 48.125ZM41.0005 36.125C39.8905 36.125 38.8405 36.5 37.9555 37.205C36.8005 38.12 36.1255 39.515 36.1255 41C36.1255 41.885 36.3655 42.755 36.8305 43.505C37.7005 44.975 39.3055 45.875 41.0005 45.875C42.1855 45.875 43.3255 45.44 44.1955 44.66C44.5855 44.33 44.9155 43.94 45.1555 43.52C45.6355 42.755 45.8755 41.885 45.8755 41C45.8755 38.315 43.6855 36.125 41.0005 36.125Z" fill="#0F4082"/>
<path d="M40.1443 43.6101C39.8593 43.6101 39.5743 43.5051 39.3493 43.2801L37.8643 41.7951C37.4293 41.3601 37.4293 40.6401 37.8643 40.2051C38.2993 39.7701 39.0193 39.7701 39.4543 40.2051L40.1743 40.9251L42.5743 38.7051C43.0243 38.2851 43.7443 38.3151 44.1643 38.7651C44.5843 39.2151 44.5543 39.9351 44.1043 40.3551L40.9093 43.3101C40.6843 43.5051 40.4143 43.6101 40.1443 43.6101Z" fill="#0F4082"/>
</svg>
